<svg xmlns="http://www.w3.org/2000/svg" viewBox="128.78 283.28 740.2 399.54"><path fill="#83b817" d="M262.18 467.7 146 448.3a.85.85 0 0 1-.71-.83l-2.28-149.13a.85.85 0 0 1 1.08-.83l115.4 33.19a.85.85 0 0 1 .61.79l3.07 135.35a.85.85 0 0 1-.99.86"/><path fill="#009ddf" d="m363.54 484.45-89.26-14.9a.7.7 0 0 1-.58-.68l-3.04-134.19a.7.7 0 0 1 .9-.69l89.52 26.38a.7.7 0 0 1 .5.65l2.77 122.72a.7.7 0 0 1-.81.71"/><path fill="#e31818" d="m264.82 626.26-115.04-4a.75.75 0 0 1-.73-.73l-3.61-159.73a.75.75 0 0 1 .86-.75l116.43 17.96a.75.75 0 0 1 .64.73l2.23 145.76a.75.75 0 0 1-.78.76"/><rect width="4.82" height="5.52" x="-2.41" y="-2.76" fill="#868789" rx="1.98" transform="rotate(-5.3 5281.146 -4730.093)"/><path fill="#868789" d="M557.68 484.62q-.87 1.04-.74 1.67c2.14 10.35-9.95 13.77-16.29 7.59a1.52 1.51 51.9 0 1 .28-2.39q1.56-.91 4.3-.43a1.01 1-4.3 0 1 .79.67q.33 1.02 1.44 1.18 3.92.55 4.14-3.38a.97.96-8 0 0-1.28-.96q-4.9 1.7-8.76-2.38a1.22 1.22 0 0 0-1.91.18q-.76 1.19-1.56 2.69a1.96 1.93 34.4 0 1-2.99.53c-2.07-1.78-1.27-7.96-.98-11.19a2.32 2.32 0 0 0-2.92-2.44l-.09.02a4.16 4.15 83.7 0 0-3.16 3.95l-.17 7.84a1.9 1.9 0 0 1-1.9 1.86h-.6a1.78 1.78 0 0 1-1.78-1.78v-12.08a.66.66 0 0 0-1.19-.39q-1.58 2.14-1.63 5.14-.1 5.31.2 7.09a1.54 1.54 0 0 1-1.52 1.79h-1.92a1.64 1.64 0 0 1-1.64-1.66c.06-5.47.44-8.83-1.96-13.27a1.56 1.55-48.7 0 1-.08-1.3c1.81-4.64 2.92-8.3 8.16-8.23a1.23 1.22 79.7 0 1 1.13.79q.5 1.3.1 2.36a2.73 2.48-64.5 0 0 .95 3.15q3.92 2.44 8.88-.08a1.38 1.35-1.6 0 0 .65-.67q.72-1.58.78-4.56a1.19 1.19 0 0 1 1.37-1.15l2.3.36a1.13 1.11 80.7 0 1 .81.59q.73 1.45-.31 3.06a1.56 1.55 2.3 0 1-.58.53q-1.51.81-2.4 2.46a.55.55 0 0 0 .33.79l3.04.94a.67.57 71.2 0 1 .22.13q1.02.93 1.87.69a.6.6 0 0 0 .2-.1l3.49-2.65a2.81 2.78 29.5 0 1 1.98-.54l8.11.91a.99.95 60.3 0 1 .27.08q1.86.86 1.98 2.55.11 1.53.14 1.62a.46.45-26.7 0 0 .75.24l4.61-4.19a2.43 2.38-74.2 0 1 .94-.54q5.46-1.66 9.45 1.84c7.74 6.79-.77 20.67-10.19 15.32q-3.44-1.96-4.58-4.19a.32.32 0 0 0-.53-.06m8.97-9.86a5.74 4.28-90.3 0 0-4.25 5.762 5.74 4.28-90.3 0 0 4.31 5.718 5.74 4.28-90.3 0 0 4.25-5.762 5.74 4.28-90.3 0 0-4.31-5.718m-14.625 3.845a3.32 3.32 0 0 0-3.389-3.25l-.52.011a3.32 3.32 0 0 0-3.25 3.39l.069 3.259a3.32 3.32 0 0 0 3.389 3.25l.52-.012a3.32 3.32 0 0 0 3.25-3.388zm179.405-2.775-.28-.01a.13.13 0 0 0-.13.14l.43 4.35a1.68 1.68 0 0 1-1.72 1.84l-8.96-.32a1.13 1.13 0 0 0-1.02 1.69l.88 1.52a2.94 2.92 63.9 0 0 3.64 1.26l4.86-1.98a1.11 1.1 78.4 0 1 1.51 1l.02.81a2.22 2.22 0 0 1-1.1 1.97q-4.11 2.37-5.9 2.2-7.36-.73-8.93-7.85a3.18 3.16 44.8 0 1-.01-1.34q.39-1.91.48-2.78a2.04 2.03 5.9 0 0-1.84-2.26c-2.21-.2-3.5 3.45-3.38 5.34q.23 3.66.04 6.5a2.02 2.02 0 0 1-2.22 1.87l-.25-.01a1.58 1.58 0 0 1-1.54-1.55l-.35-15.29a1.55 1.54-78.9 0 1 2.16-1.45l2.23.96a1.78 1.77 47.6 0 0 1.26.06c.77-.25 1.56-1.39 2.58-1.37q1.37.03 2.59 2.3a.75.75 0 0 0 1.18.19q1.29-1.2 3.5-2.42c2.79-1.54 5.02.24 7.87 1.78a1.34 1.34 0 0 0 1.81-.52l3.01-5.2a4.89 4.88 15 0 1 4.23-2.44l.41.01a1.7 1.69 11.6 0 1 1.56 2.36q-1.42 3.31-1.19 5.77a1.08 1.07-19.6 0 0 1.67.79q3.08-2.05 4.51-2.7c3.62-1.63 5.62.64 8.88 2.26a1.22 1.21-75.3 0 0 1.75-1.03c.16-2.96-.63-7.96 3.66-7.52a1.87 1.87 0 0 1 1.68 1.68l.5 5.08a.89.89 0 0 0 1.22.75l3.2-1.26a2.04 2.03 45.2 0 1 1.54.01q1.49.61 4.57 3.41.65.59 1.95.65a.5.5 0 0 0 .53-.52l-.24-7.65a2.05 2.04-89.5 0 1 2.14-2.11l.17.01a2.3 2.3 0 0 1 2.23 2.06l.48 4.67a.93.92-9.2 0 0 1.12.8l4.01-.88a2.58 2.58 0 0 1 2.62.99q1.05 1.45 2.75 2.72a1.19 1.19 0 0 0 1.74-.35l1.08-1.87a1.9 1.9 0 0 1 1.64-.94h8.7a.73.73 0 0 0 .64-1.09q-1.14-2.04-.12-5.45a.84.84 0 0 1 .83-.59q2.05.07 2.54.32a2.27 1.94-56.7 0 1 .41 3.22q-.9 1.15-1.53 2.5a1.55 1.55 0 0 0 .06 1.41l1.24 2.14a1.31 1.21-62.2 0 1 .17.64v13.1a1.58 1.58 0 0 1-1.81 1.56l-.56-.09a1.69 1.68-86.8 0 1-1.44-1.62l-.24-10.88a1.91 1.91 0 0 0-2.86-1.61l-.54.31a5.52 5.52 0 0 0-2.75 4.67l-.13 7.7a1.26 1.2 61 0 1-.16.61q-.73 1.3-2.34.95a1.51 1.48 74.6 0 1-.81-.47q-1.5-1.67-2.14-3.3a.95.95 0 0 0-1.55-.33l-3.49 3.49a2.31 2.29 28.9 0 1-2.15.61q-3.87-.92-7.66-.39a1.44 1.41-29.4 0 1-1.07-.29q-1.03-.78-1.51-1.81a1.02 1.02 0 0 0-1.43-.45l-5.34 3.08a1.5 1.48 39.7 0 1-1.28.11c-2.46-.92-3.67-1.25-6.28-.56q-1.63.43-3.61.37c-2.87-.1-4.97-2.07-7.95-.57-4.06 2.04-8.48-.73-8.73-4.95a2.95 2.93 58.6 0 1 .39-1.64l2.12-3.68a.36.35 14.2 0 1 .31-.18h6.9a.65.64-7 0 0 .63-.8q-.51-2.07-1.26-3.06a.99.99 0 0 0-1.29-.26l-4.48 2.59a.87.86-44.4 0 1-.85 0c-1.56-.87-3.59-2.04-4.61-.73q-.47.61-.28 2.36.36 3.38-.2 6.15a1.78 1.77 39.8 0 0 .1 1.07q.68 1.67-.01 2.88a1.24 1.23-82.3 0 1-.77.59q-1.47.39-2.4-.51a1.96 1.95-70.9 0 1-.59-1.22l-1.13-11.59a.55.55 0 0 0-.52-.49m-10.78 3.62 5.7-.39a.52.52 0 0 0 .49-.55l-.01-.13a4.05 3.36 86.1 0 0-3.63-3.82l-.04.01a4.05 3.36 86.1 0 0-3.08 4.27l.01.13a.52.52 0 0 0 .56.48m66.452-.701a3.71 3.71 0 0 0-3.73-3.69l-.68.003a3.71 3.71 0 0 0-3.69 3.73l.016 3.16a3.71 3.71 0 0 0 3.73 3.69l.68-.004a3.71 3.71 0 0 0 3.69-3.73zm-22.779-3.339a5.14 3.96-95.1 0 0-3.487 5.472 5.14 3.96-95.1 0 0 4.4 4.768 5.14 3.96-95.1 0 0 3.488-5.472 5.14 3.96-95.1 0 0-4.4-4.768m-13.873 7.08a1.05 1.05 0 0 0-1.27-1.02l-4.09.9a1.13 1.13 0 0 0-.86 1.35l.43 1.99a1.63 1.63 0 0 0 2.08 1.2q3.73-1.18 3.71-4.42m99.989-15.93q1.01-2.34 2.6-1.75a2.89 2.33-70.8 0 1 1.23 3.44q-.83 2.46-.27 4.44.6 2.13.63 3.73.11 8.55-.11 11.8a1.4 1.4 0 0 1-1.45 1.3l-8.62-.3a1.43 1.43 0 0 1-1.38-1.29l-1.13-11.64a.62.62 0 0 0-.46-.54l-.32-.09a.94.94 0 0 0-1.15.85q-.29 4.49-.15 9.48.03.96.51 2.3a.97.97 0 0 1-1.32 1.22q-3.39-1.55-6.29-.26c-3.34 1.47-5.28.3-7.54-1.84a2.11 2.11 0 0 0-2.75-.13l-3.04 2.39a2.68 2.65 24.2 0 1-1.53.57q-4.31.2-7.66-3.34a2 1.94 19 0 1-.52-1.03c-.81-4.9-1.14-6.11-.45-9.91a2.11 2.07-18.6 0 1 .55-1.08q2.34-2.43 5.4-3.8a2.24 2.21 36.2 0 1 1.15-.17q3.43.38 5.06 1.68 2.34 1.87 2.59 1.97a1.26 1.24-48.2 0 0 .96-.06q.59-.29 3.08-2.14 2.25-1.67 5.1-1.8a1.44 1.38 56.3 0 1 .67.15l4.11 2.08a2.48 2.48 0 0 0 3.5-1.52l.84-2.94a1.25 1.23-8.4 0 1 .52-.69q1.75-1.1 3.82.1a1.15 1.11-83.9 0 1 .5.64l.73 2.57a2.1 2.09-8.9 0 0 2.08 1.51h.06a1.42 1.42 0 0 0 1.36-1.79l-.95-3.47a1 .97 49.4 0 1 .04-.64m-17.4 8.5-4.34 1.34a2.54 2.52-74.7 0 0-.99.57c-3.1 2.8-6.39.32-9.21-1.26a2.83 2.82 34.6 0 0-3.54.64c-2.01 2.38-2.81 7.93 1.1 9.43q1 .38 2.64-.75 2.06-1.43 4.46-2.11.81-.23 3.78-2.4 2.87-2.1 7.27-1.63a.84.83 78 0 0 .81-1.25l-1.34-2.33a.55.55 0 0 0-.64-.25m15.09 11.18 1.1.32a1.38 1.37 3.7 0 0 1.75-1.53q-.62-3.87.01-7.31a1.72 1.71-83.8 0 0-1.62-2.03l-1.29-.04a1.69 1.69 0 0 0-1.75 1.63l-.22 6.16a2.83 2.82-80.8 0 0 2.02 2.8m-13.33-5.23-5.89 1.87a.4.4 0 0 0-.26.51l.38 1.2a3.03 2.98-17.6 0 0 3.79 1.92l.88-.28a3.03 2.98-17.6 0 0 1.99-3.75l-.38-1.21a.4.4 0 0 0-.51-.26m-212.07-4.56a.34.34 0 0 0 .61.03c2.94-5.17 7.92-7.41 13.65-4.4q1.99 1.05 2.72 2.64 2.45 5.31.45 10.37-.96 2.43-2.47 3.35-7.86 4.77-13.32-2.34-.22-.3-.48-.95-.25-.63-.61-.89a.42.42 0 0 0-.65.2c-1.13 3.19-3.86 6.23-7.46 5.45q-1.02-.22-4.08-.75a2.59 2.43 43.2 0 0-.89 0l-2.97.55a.93.93 0 0 1-1.1-.87q-.25-4.97.02-21.3c.04-2.44 1.94-3.2 4.11-2.15a.97.95 12.8 0 1 .54.84l.13 5.48a.56.56 0 0 0 .81.49q7.48-3.7 10.99 4.25m9.292-1.08a5.12 4.19-90.2 0 0-4.172 5.135 5.12 4.19-90.2 0 0 4.208 5.105 5.12 4.19-90.2 0 0 4.172-5.135 5.12 4.19-90.2 0 0-4.208-5.105m-17.621.217a4.98 3.92-93.1 0 0-3.645 5.185 4.98 3.92-93.1 0 0 4.183 4.76 4.98 3.92-93.1 0 0 3.645-5.184 4.98 3.92-93.1 0 0-4.183-4.76M415.21 480.36l.41-7.79a.87.87 0 0 1 1.22-.75q1.94.85 3.36.81a2.3 2.23 31.1 0 0 .91-.21l2.8-1.31a1.82 1.78 42.8 0 1 1.43-.04q1.44.58 2.48 1.61a2.55 2.55 0 0 0 4.05-.64c.51-.99 1.14-4.75 3.39-5.04a2.23 2.22 73.8 0 1 2.32 1.28q1.04 2.26 1.41 5.32a1.01 1.01 0 0 0 1.51.74c2.63-1.58 6.09-4.08 8.97-3.07q2.4.83 4.45 1.87a1.94 1.93 16.4 0 1 1.05 1.91l-.5 5.01a.56.53 43.4 0 0 .01.18q.36 2.27-.05 5.76-.11 1 .87 1.87a.77.76-43 0 1-.05 1.18q-.67.51-1.55.18-1.43-.54-2.45-.66a2.72 2.69-50.3 0 0-1.1.11q-1.58.51-3.67 1.03-2.49.62-4.58-1.32a1.74 1.47 39.9 0 0-2.41.01q-1.41 1.95-4.1.69a1.52 1.5.7 0 1-.75-.76c-1.54-3.42-1.15-7.37-.62-11.39a1.21 1.2-7.2 0 0-1.65-1.27l-.51.2a1.94 1.94 0 0 0-1.2 1.78l-.05 9.59a2.54 2.54 0 0 1-2.37 2.52l-.16.01a2 2 0 0 1-2.24-1.99l.05-9.55a3 2.99 87.2 0 0-3.29-2.99l-.41.05a3.19 3.19 0 0 0-3.07 3.2l.05 9.22a2.09 2.09 0 0 1-2.22 2.09l-.1-.01a1.89 1.89 0 0 1-1.84-2.1q.55-4.89.2-7.22a.33.21 58.3 0 1 0-.11m35.17-2.52c.34-2.38-.93-4.02-3.43-3.7a1.93 1.87 22.3 0 0-.93.37l-2.88 2.19a.96.95-66.5 0 1-.47.19q-2.2.28-3.2-1.13a1.07 1.07 0 0 0-1.93.45q-.54 3.46-.77 7.79-.08 1.37.81 1.99a.85.84-64 0 0 1.29-.45c1.24-4.05 5.54-8.11 10.07-6.69a1.2 1.1-77.6 0 0 1.44-1.01m-1.26 3.12-4.36 1.34a1.21 1.21 0 0 0-.8 1.51l.34 1.12a3.08 3-17.1 0 0 3.83 1.96l.78-.24a3.08 3-17.1 0 0 2.06-3.77l-.34-1.12a1.21 1.21 0 0 0-1.51-.8m31.48-.03a.22.22 0 0 0-.16-.27h-.01a.15.14 13.1 0 0-.18.11q-.8 3.75-.54 5.84c.3 2.42-.92 3.6-3.21 3.08a1 .98-2 0 1-.71-.65c-1.26-3.73-.03-8.18-.79-11.66a2.08 2-72.4 0 0-.46-.93q-1.56-1.8-4.05-1.02c-3.24 1.01-2.08 9.89-1.88 12.21a1.65 1.64-2.4 0 1-1.64 1.78h-1.48a1.63 1.63 0 0 1-1.63-1.63v-15.26a.75.74 4.3 0 1 .86-.73l2.9.45a4.08 4.06 43 0 0 1.47-.05l5.05-1.11a1.18 1.07-42.1 0 1 .47 0q3.15.61 4.44 3.25 1.09 2.25 1.12 2.29a.43.43 0 0 0 .73-.07q1.88-4.01 6.25-5.64c3.24-1.21 5.34.78 8.15 2.89a1.14 1.14 0 0 0 1.39-.01l1.83-1.43a1.14 1.1-66.3 0 1 .61-.25l8.23-.8a1.05 1.04-18.4 0 1 .99.49q.65 1.02.12 2.54a1.27 1.26-3.7 0 1-.64.72c-2.72 1.29-5.3 2.36-5.23 5.5q.13 5.46.01 8.1a.96.94-6.3 0 1-.71.87c-1.63.42-3.74-.98-5.1-1.7a1.36 1.36 0 0 0-1.1-.09q-.81.27-2.69 1.46c-3.28 2.08-5.97 1.22-9.43-1.06q-4.09-2.7-2.98-7.22m6.33-1.69 4.6-.51a.73.73 0 0 0 .64-.81l-.02-.17a3.22 3.04 83.6 0 0-3.38-2.86 3.22 3.04 83.6 0 0-2.66 3.54l.02.17a.73.73 0 0 0 .8.64m10.45 4.02a1.19 1.19 0 0 0-1.19-1.19h-9.53a1.02 1.02 0 0 0-.97 1.33c.99 3.09 2.87 3.23 5.91 2.14q2.09-.75 4.64-.8a1.17 1.16-.8 0 0 1.14-1.16z"/><path fill="#868789" d="M649.12 485.69q-.52 0-.68.2c-1.85 2.22-3.54 4.42-6.09 4.49a.94.94 0 0 1-.96-1.07q.61-4.39 3.74-6.86a2.8 2.62 46.1 0 0-.06-4.17q-3.04-2.68-3.18-6.84a.72.71 3.1 0 1 .82-.73c2.12.3 3.61 1.98 5.99 4.03q.08.06.45.06t.44-.06c2.39-2.03 3.89-3.71 6.02-3.99a.72.71-2.7 0 1 .81.73q-.16 4.16-3.22 6.82a2.8 2.62-45.8 0 0-.08 4.17q3.12 2.49 3.7 6.88a.94.94 0 0 1-.96 1.07c-2.55-.09-4.23-2.3-6.07-4.53q-.16-.19-.67-.2m-252.93-9.81q.23 0 .31-.13c3.47-5.98 10.49-6.45 14.8-1.08q1.21 1.5 1.62 3.21 2.12 8.73-5.83 12.33a3.5 3.44-58.8 0 1-1.06.27q-6.76.59-9.36-5.6-.11-.28-.51-.28-.39 0-.51.27-2.63 6.18-9.39 5.55a3.5 3.44 59.1 0 1-1.06-.27q-7.92-3.65-5.75-12.37.42-1.71 1.64-3.2c4.34-5.34 11.36-4.83 14.79 1.17q.08.13.31.13m9.002-.8a5.29 4.44-85.1 0 0-4.876 4.89 5.29 4.44-85.1 0 0 3.972 5.65 5.29 4.44-85.1 0 0 4.876-4.89 5.29 4.44-85.1 0 0-3.972-5.65m-17.832 11.13 7.74-4.93a.28.28 0 0 0 .09-.39l-.2-.3a8.26 4.68 57.5 0 0-8.38-4.46l-.32.21a8.26 4.68 57.5 0 0 .49 9.48l.19.3a.28.28 0 0 0 .39.09m301.76 10.31a1.86 1.85-90 0 1-1.85-1.86v-22.38a1.04 1.04 0 0 1 1.31-1c2.51.7 3.45 1.25 5.76.52q7.92-2.5 10.53 6.34.45 1.53-.65 7.13a2.18 2.1 70.5 0 1-.4.88q-4.04 5.39-10.82 2.99a.82.82 0 0 0-1.09.85l.45 4.56a1.8 1.8 0 0 1-1.79 1.97zm6.608-20.896a5.03 4.18-92.3 0 0-3.975 5.194 5.03 4.18-92.3 0 0 4.379 4.858 5.03 4.18-92.3 0 0 3.975-5.194 5.03 4.18-92.3 0 0-4.379-4.858M459.54 472.5a1.84 1.84 0 0 1 1.84 1.89q-.17 6.09-.73 10.6-.1.72.4 2.69a1.33 1.32 57.6 0 1-.25 1.15q-.26.32-2.78.4a.83.83 0 0 1-.81-1.1q.41-1.17.39-2.12-.02-1.08-.53-11.52a1.9 1.9 0 0 1 1.9-1.99zm136.55 1.57a.61.61 0 0 1 .92.56q-.14 2.62-1.57 4.83a2.29 2.28-48.5 0 0 .16 2.71q1.15 1.38 1.58 2.8a.95.95 0 0 1-1.26 1.15c-3.64-1.43-3.68-4.4-4.57-7.56a1.88 1.73 64.5 0 0-2.77-1.11q-1.14.86-1.73 2.47a2.41 2.4-69.4 0 0 1.39 3.08q.93.36 2.03.8a.77.77 0 0 1 .21 1.31l-.14.11a1.95 1.93-52.5 0 1-2.04.28c-6.33-2.87-5.22-8.04.18-10.9a.61.61 0 0 1 .85.3q.94 2.17 3.77 2.1a1.18 1.18 0 0 0 .98-.58q1.05-1.8 2.01-2.35m82.86.86v.61a1.31 1.27 63.2 0 1-.23.74q-1.94 2.83-2.25 3.38a2.19 2.12 33.2 0 0 .62 2.77q1.41 1.07 1.85 2.6a.92.92 0 0 1-1.23 1.1q-5.97-2.43-4.68-8.57a1.14 1.12 80 0 1 .48-.7l4.05-2.67a.9.89-16.7 0 1 1.39.74M668.76 480a.78.78 0 0 0-.07 1.36q1.89 1.19 2.71 2.42a1.2 1.2 0 0 1-1.2 1.85q-3.67-.6-5.21-4.62a2.04 1.96 38.7 0 1-.12-.92q.4-3.95 5.06-5.59a1.05 1.05 0 0 1 1.4.97q.05 3.24-2.57 4.53M386.91 601.73a.21.21 0 0 0-.4.01q-.56 2.58-2.06 5.53c-12.06 23.74-44.25 24.48-66.29 19.08-18.34-4.49-29.01-18.1-30.06-36.63a1.12 1.12 0 0 1 1.12-1.18h22.38a1.03 1.02-3.5 0 1 1.02.9q1.8 13.52 15.6 17.49c8.81 2.53 24.06 2.58 30.91-4.82 6.59-7.11 4.85-18.21-4.15-22.34-3-1.38-7.45-2.65-11.04-3.41q-15.97-3.42-26.98-6.83c-12.91-4-23.92-12.13-25.7-26.5q-3.41-27.64 21.05-38.39 6.62-2.91 14.83-3.67c16.72-1.54 34.22.9 46.54 13.6 6.55 6.76 8.95 14.94 10.47 23.89a1.29 1.28 85.2 0 1-1.26 1.5h-21.88a1.95 1.95 0 0 1-1.92-1.6c-.94-5.09-1.95-9.18-6.48-12.2-7.61-5.09-20.04-5.55-28.49-2.72-5.74 1.92-9.16 5.12-9.89 11.07-1.33 10.8 10.14 14.42 18.28 16.44 13.35 3.31 22.8 5.42 34.25 9.8q9.41 3.6 16.12 11.29a.39.39 0 0 0 .68-.21c.14-1.12-.37-2.76-.12-3.86q5.92-25.76 30.09-32.9 9.56-2.82 22.32-1.41 16.01 1.77 27.08 13.88 7.17 7.85 8.27 18.49a.27.27 0 0 0 .52.05c3.87-12.3 9.8-22.48 21.55-28.82 10.41-5.61 26.61-5.67 35.77 2.67q3.1 2.83 4.79 4.75.3.35.85.53a.5.49-83.5 0 0 .64-.52l-.79-8.1a.93.92 87.2 0 1 .92-1.02h22.18a.88.88 0 0 1 .88.87q.12 11.91-.32 21.33-.14 2.93.44 5.6a.36.36 0 0 0 .71-.02c1.03-6.69 2.6-9.14 6.91-15.21 5.77-8.14 16.59-13.03 25.99-14.4q7.24-1.05 16.16.21c18.12 2.54 29.62 15.86 32.05 33.69q1.08 7.9 1.67 10.95.65 3.39.27 6.87a1.11 1.11 0 0 1-1.1.99h-59.94a.71.7-2.2 0 0-.71.76q.75 9.41 6.38 15.77c4.25 4.81 12.11 6.29 17.99 5.1q8.07-1.62 11.3-8.68a1.8 1.79 12.3 0 1 1.63-1.04h16.56a3.66 3.64-60.7 0 0 1.91-.54q2.58-1.57 5.09-1.56 11.12.03 18.81-.04a1.59 1.58 81.9 0 1 1.54 1.16q.79 2.88 2.04 5.29c2.26 4.37 10.11 6.99 14.13 6.94 5.01-.08 9.31-.28 13.58-2.32 5.05-2.41 6.29-7.04 2.64-11.79-1.29-1.67-6.12-3.64-8.8-4.29-9.52-2.34-17.03-4.1-26.4-7.75q-8.89-3.45-14.88-10.62a7.46 7.36-71.2 0 1-1.54-3.19q-.72-3.39-1.66-9.65c-.55-3.68.72-8.3 2.09-11.48q1.75-4.07 5.93-7.1 9.24-6.71 21.03-7.64c18.09-1.43 40.63-.16 45.93 21.5.6 2.48.55 4.7-.04 7.05a.98.98 0 0 1-1.01.74q-10.25-.62-18.82.23a.93.93 0 0 1-.95-.56q-1.66-3.9-2.88-6.21c-3.39-6.4-14.46-5.7-20.44-5.01q-5.33.62-7.45 4.47-2.47 4.51 2.32 7.51 5.81 3.63 11.94 5.16 14.04 3.52 24.79 7.21c3.84 1.32 8.36 3.67 11.24 6.36a.36.36 0 0 0 .6-.32q-1.08-7.63.71-16.08c.55-2.59 1.68-4.77 2.38-7.85a6.06 5.78-27.7 0 1 .42-1.24q8.71-18.46 28.54-22.48c8-1.61 19.03-1.31 26.77 1.5 20.59 7.46 25.99 29.31 26.08 49.57a1.12 1.12 0 0 1-1.12 1.12h-59.93a.51.51 0 0 0-.51.53c.28 7.98 4.88 18.04 13.05 20.45 8.87 2.62 18.26.59 22.61-8.15a1.69 1.69 0 0 1 1.51-.93h22.17a.44.43 5 0 1 .43.51q-.82 4.23-2.46 7.26-10.38 19.15-32.5 20.98c-13.71 1.13-28.39-1.94-38.02-12.45q-3.75-4.1-4.89-9.36a.36.36 0 0 0-.69-.05c-4.82 12.46-13.76 18.91-27.18 21.05q-14.15 2.27-27.38-.53c-11.34-2.4-22-8.93-26.1-20.18a.62.62 0 0 0-1.16-.02c-4.95 12.62-18.34 20.31-31.5 21.45-22.71 1.96-43.81-7.1-47.55-31.68a.17.17 0 0 0-.34 0q-.49 4.31-.39 6.42.41 8.92.18 27.25-.11 8.53-3.66 15.5c-10.1 19.81-29.93 24.08-50.5 21.59-16.11-1.96-29.24-12.46-32.97-28.62q-.89-3.84-.67-7.35a.61.61 0 0 1 .61-.57h20.2a1.17 1.16-3 0 1 1.16 1.04q1.43 13.54 15.05 15.5 12.74 1.84 21.47-5.48 5.07-4.25 5.4-11.37.4-8.91 1.19-14.9a.24.24 0 0 0-.42-.2q-2.17 2.33-5.31 5.11c-5.74 5.06-13.27 6.51-21.18 6.35-15.98-.32-27.93-8.18-33.95-22.48q-2.26-5.38-3.66-9.66a.08.08 0 0 0-.16.02q-.88 12.32-9.87 21.22-8.61 8.51-19.43 11c-18.39 4.24-38.23.35-50.15-14.93q-3.25-4.16-4.61-9.04m195.17-30.22 35.26.06a.34.34 0 0 0 .34-.34v-.56a18.52 17.88-89.9 0 0-17.84-18.55h-.18a18.52 17.88-89.9 0 0-17.92 18.49v.56a.34.34 0 0 0 .34.34m157.86.16 35.12-.24a.34.34 0 0 0 .34-.35l-.01-.53a18.59 17.77 89.6 0 0-17.9-18.46h-.26a18.59 17.77 89.6 0 0-17.64 18.71l.01.53a.34.34 0 0 0 .34.34m-333.1 8.7c0 14.57 4.8 26.91 21.54 26.92 16.74 0 21.54-12.35 21.54-26.92s-4.8-26.92-21.54-26.92-21.54 12.34-21.54 26.92m88.47.27c.17 8.11 1.77 15.88 7.96 21.58 3.63 3.34 7.66 4.43 12.7 4.33 5.03-.11 9.01-1.36 12.5-4.85 5.95-5.95 7.23-13.78 7.07-21.89-.17-8.11-1.78-15.88-7.96-21.58-3.64-3.35-7.66-4.43-12.7-4.33-5.04.11-9.01 1.36-12.51 4.85-5.94 5.95-7.23 13.78-7.06 21.89"/><path fill="#868789" d="M415.803 516.117a11.66 11.66 0 0 1-11.393 11.922l-2.48.056a11.66 11.66 0 0 1-11.92-11.393l-.053-2.279a11.66 11.66 0 0 1 11.393-11.922l2.48-.056a11.66 11.66 0 0 1 11.92 11.393zm-3.172-2.462a9.92 9.19-8.9 0 0-11.223-7.544 9.92 9.19-8.9 0 0-8.379 10.614 9.92 9.19-8.9 0 0 11.223 7.544 9.92 9.19-8.9 0 0 8.379-10.614"/><path fill="#868789" d="M400.9 509.14a.87.87 0 0 1 .78.96l-.36 3.65a8.5 1.98-84.4 0 1-2.8 8.26l-.1-.01a8.5 1.98-84.4 0 1-1.14-8.65l.36-3.65a.87.87 0 0 1 .95-.78z"/><path fill="#868789" d="M407.9 521.36q-3.69-.53-6.01-3.68a1.13 1.12 41.6 0 1-.08-1.2q1.46-2.65.47-6.42a1.18 1.18 0 0 1 1.73-1.32l3.54 2.04a1.53 1.52 17.2 0 1 .76 1.43q-.13 1.73-1.71 3.41a1.61 1.58 71 0 0-.42.88q-.14.91 2.22 4.01a.53.53 0 0 1-.5.85"/></svg>