<svg xmlns="http://www.w3.org/2000/svg" viewBox="0 0 114.75 33.75" fill="#0A0A0A" role="img" aria-label="Verbalist">
  <title>Logotipo Verbalist (versione scura)</title>
  <defs>
    <clipPath id="verbalist-logo-clip-dark">
      <path d="M.297 0h113.906v33.422H.297Zm0 0" />
    </clipPath>
  </defs>
  <g clip-path="url(#verbalist-logo-clip-dark)">
    <path d="m23.77-.078-4.454 7.84-2.691 4.734-2.566 4.516-1.473 2.593-3.227 5.684-.004.004 4.704 8.281 2.945-5.18 1.762-3.101.937-1.652 4.184-7.368 4.84-8.511ZM.309 9.816l4.058 7.149 2.895 5.09 4.789-8.13-2.332-4.109Zm30.347 4.22v3.472h6.621v1.883h-6.62v3.804h7.042v2.153H27.98V11.887h9.657v2.148Zm11.149 4.624h3.746q1.336 0 1.777-.469.439-.467.438-1.878.001-1.438-.38-1.86-.373-.417-1.656-.418h-3.925Zm-2.61 6.688V11.887h6.778q2.53-.001 3.484.86.956.856.957 3.1 0 2.045-.48 2.794-.476.749-1.957 1.035v.09q2.285.134 2.285 2.613v2.969h-2.606V22.89q0-2.08-2.097-2.078h-3.754v4.535Zm15.328-2.153h2.868l.922-.02q1.318 0 1.742-.363.417-.361.418-1.539c0-.812-.149-1.328-.442-1.539-.293-.207-1.011-.312-2.164-.312h-3.344Zm0-5.66h3.204q1.551 0 1.984-.332.429-.338.43-1.55c0-1.079-.63-1.618-1.88-1.618h-3.738Zm-2.613 7.813V11.887h6.774q2.384-.001 3.246.742c.578.496.863 1.434.863 2.809 0 1.664-.676 2.64-2.027 2.937v.05q2.362.354 2.363 3.204-.001 2.06-.91 2.89-.91.828-3.172.829Zm20.621-4.47-2.3-7.01-2.262 7.01Zm.586 1.884h-5.742l-.828 2.586h-2.672l4.426-13.461h3.793l4.496 13.46h-2.625Zm7.551-10.875v11.172h6.39v2.289h-8.972V11.887Zm7.887 13.46h2.242v-13.46h-2.242Zm14.64-9.488h-2.402a3 3 0 0 1-.02-.273c-.054-.742-.218-1.207-.484-1.399q-.397-.285-1.879-.285-1.752 0-2.285.328-.54.331-.54 1.387c0 .832.15 1.336.438 1.504.293.168 1.254.297 2.891.387q2.896.164 3.746.844.851.675.852 2.816.001 2.637-1 3.41-.996.769-4.399.77-3.057-.002-4.058-.754-1.003-.76-1.004-3.067l-.008-.484h2.39l.012.281q-.001 1.39.477 1.696.474.311 2.594.312 1.653 0 2.105-.36.457-.358.457-1.656c0-.64-.113-1.066-.348-1.273-.23-.211-.726-.34-1.496-.383l-1.355-.09c-2.055-.12-3.367-.414-3.934-.87q-.855-.689-.855-2.958 0-2.313 1.031-3.086c.684-.511 2.059-.77 4.117-.77q2.927 0 3.942.708c.68.472 1.015 1.39 1.02 2.761Zm7.508-1.687v11.176h-2.555V14.172h-3.89v-2.285h10.472v2.285Zm0 0" />
  </g>
</svg>
